<svg height="488pt" viewBox="-32 0 488 488.188" width="488pt" xmlns="http://www.w3.org/2000/svg"><path d="m393.894531 348.640625h-363.601562c-14.46875 0-26.199219-11.730469-26.199219-26.199219v-292.242187c0-14.46875 11.730469-26.199219 26.199219-26.199219h363.601562c14.46875 0 26.199219 11.730469 26.199219 26.199219v292.242187c0 14.46875-11.730469 26.199219-26.199219 26.199219zm0 0" fill="#e0ebfc"/><path d="m420.09375 59.371094v-29.523438c0-14.277344-11.886719-25.847656-26.554688-25.847656h-362.890624c-14.667969 0-26.554688 11.570312-26.554688 25.847656v42.476563h416zm0 0" fill="#f9a7a7"/><path d="m375.476562 56.632812c-1.699218 0-3.40625-.6875-4.769531-2.078124l-21.003906-21.421876c-2.941406-3-3.1875-8.148437-.554687-11.492187 2.640624-3.34375 7.15625-3.625 10.101562-.625l21.003906 21.421875c2.941406 3 3.1875 8.144531.550782 11.488281-1.414063 1.792969-3.367188 2.707031-5.328126 2.707031zm0 0" fill="#a4c9ff"/><path d="m354.476562 56.632812c-1.960937 0-3.914062-.914062-5.328124-2.707031-2.636719-3.347656-2.386719-8.488281.550781-11.488281l21.003906-21.421875c2.945313-3.003906 7.460937-2.71875 10.101563.625 2.636718 3.347656 2.386718 8.492187-.550782 11.492187l-21.007812 21.421876c-1.363282 1.394531-3.070313 2.078124-4.769532 2.078124zm0 0" fill="#a4c9ff"/><path d="m320.019531 47.140625h-15.15625c-2.453125 0-4.441406-1.992187-4.441406-4.441406v-18.464844c0-2.453125 1.988281-4.441406 4.441406-4.441406h15.15625c2.453125 0 4.441407 1.988281 4.441407 4.441406v18.464844c0 2.453125-1.988282 4.441406-4.441407 4.441406zm0 0" fill="#a4c9ff"/><path d="m262.425781 51.28125h-22.722656c-4.648437 0-8.414063-4.285156-8.414063-9.574219 0-5.285156 3.769532-9.574219 8.414063-9.574219h22.722656c4.648438 0 8.414063 4.289063 8.414063 9.574219 0 5.289063-3.765625 9.574219-8.414063 9.574219zm0 0" fill="#a4c9ff"/><path d="m307.996094 55.777344h-15.152344c-2.453125 0-4.441406-1.988282-4.441406-4.441406v-18.464844c0-2.453125 1.988281-4.441406 4.441406-4.441406h15.152344c2.457031 0 4.445312 1.992187 4.445312 4.441406v18.464844c0 2.453124-1.988281 4.441406-4.445312 4.441406zm0 0" fill="#e0ebfc"/><path d="m393.894531 352.640625h-363.601562c-16.652344 0-30.199219-13.546875-30.199219-30.199219v-292.242187c0-16.652344 13.546875-30.199219 30.199219-30.199219h363.601562c16.652344 0 30.199219 13.546875 30.199219 30.199219v292.246093c0 16.648438-13.546875 30.195313-30.199219 30.195313zm-363.601562-344.640625c-12.242188 0-22.199219 9.957031-22.199219 22.199219v292.246093c0 12.238282 9.957031 22.195313 22.199219 22.195313h363.601562c12.242188 0 22.199219-9.957031 22.199219-22.195313v-292.246093c0-12.242188-9.957031-22.199219-22.199219-22.199219zm0 0" fill="#3762cc"/><path d="m203.433594 84.890625-126.210938 49.722656c-6.039062 2.378907-5.925781 10.984375.171875 13.203125l126.386719 45.992188c3.171875 1.152344 6.644531 1.152344 9.8125 0l126.425781-46.007813c6.085938-2.210937 6.199219-10.800781.171875-13.175781l-126.246094-49.730469c-3.378906-1.332031-7.136718-1.332031-10.511718-.003906zm0 0" fill="#4671c6"/><path d="m208.691406 198.671875c-2.128906 0-4.25-.371094-6.273437-1.105469l-126.390625-45.992187c-4.355469-1.585938-7.207032-5.609375-7.269532-10.25-.058593-4.636719 2.6875-8.734375 7-10.4375l126.207032-49.714844c4.335937-1.710937 9.113281-1.710937 13.449218 0l126.246094 49.730469c4.308594 1.699218 7.050782 5.789062 6.992188 10.421875-.0625 4.636719-2.914063 8.652343-7.261719 10.234375l-126.425781 46.007812c-2.023438.734375-4.152344 1.105469-6.273438 1.105469zm0-110.78125c-1.289062 0-2.570312.242187-3.792968.722656l-126.210938 49.71875c-1.816406.714844-1.9375 2.390625-1.929688 2.886719.003907.496094.167969 2.167969 2.003907 2.835938l126.386719 45.992187c2.28125.832031 4.796874.832031 7.078124 0l126.421876-46.007813c1.828124-.664062 1.992187-2.324218 2-2.820312.003906-.492188-.113282-2.160156-1.921876-2.875l-126.246093-49.730469c-1.21875-.480469-2.507813-.722656-3.789063-.722656zm-5.261718-3h.019531zm0 0" fill="#3762cc"/><path d="m344.648438 218.585938v-77.636719c0-.003907 0-.003907 0-.007813.359374-3.582031-2.292969-6.515625-5.894532-6.515625h-123.707031c-3.402344 0-6.507813 2.449219-6.847656 5.835938-.390625 3.894531 2.660156 7.179687 6.476562 7.179687h113.796875c1.746094 0 3.160156 1.414063 3.160156 3.160156v67.984376c-4.042968 2.273437-6.78125 6.597656-6.78125 11.566406v20.996094c0 1.796874 1.453126 3.25 3.246094 3.25h20.085938c1.792968 0 3.246094-1.453126 3.246094-3.25v-20.996094c.003906-4.96875-2.734376-9.292969-6.78125-11.566406zm0 0" fill="#ffea92"/><path d="m355.003906 341.894531c0-33.105469-26.472656-60.015625-59.402344-60.757812v-.035157h-167.175781v.035157c-32.933593.742187-59.402343 27.648437-59.402343 60.757812l-5.53125 115.058594c-.710938 14.824219 11.117187 27.234375 25.957031 27.234375h.011719c8.394531 0 16.269531-4.054688 21.148437-10.886719l50.425781-70.613281h101.953125l50.425781 70.613281c4.878907 6.832031 12.757813 10.886719 21.148438 10.886719h.011719c14.839843 0 26.671875-12.410156 25.957031-27.234375zm0 0" fill="#4671c6"/><path d="m190.605469 341.894531c0 33.574219-27.21875 60.792969-60.792969 60.792969s-60.789062-27.21875-60.789062-60.792969 27.214843-60.789062 60.789062-60.789062 60.792969 27.214843 60.792969 60.789062zm0 0" fill="#e0ebfc"/><path d="m355.003906 341.894531c0 33.574219-27.21875 60.792969-60.792968 60.792969-33.574219 0-60.789063-27.21875-60.789063-60.792969s27.214844-60.789062 60.789063-60.789062c33.574218 0 60.792968 27.214843 60.792968 60.789062zm0 0" fill="#e0ebfc"/><path d="m223.980469 356.238281h-23.933594c-1.78125 0-3.230469-1.445312-3.230469-3.230469v-8.734374c0-1.785157 1.445313-3.230469 3.230469-3.230469h23.933594c1.785156 0 3.230469 1.445312 3.230469 3.230469v8.734374c0 1.785157-1.445313 3.230469-3.230469 3.230469zm0 0" fill="#f9a7a7"/><path d="m172.367188 341.894531c0 23.503907-19.050782 42.554688-42.554688 42.554688-23.5 0-42.550781-19.050781-42.550781-42.554688 0-23.5 19.050781-42.550781 42.550781-42.550781 23.503906 0 42.554688 19.050781 42.554688 42.550781zm0 0" fill="#a4c9ff"/><path d="m154.132812 330.402344h-13.679687v-13.675782c0-3.359374-2.722656-6.082031-6.078125-6.082031h-9.117188c-3.359374 0-6.082031 2.722657-6.082031 6.082031v13.675782h-13.679687c-3.355469 0-6.078125 2.722656-6.078125 6.082031v9.117187c0 3.359376 2.722656 6.082032 6.078125 6.082032h13.679687v13.675781c0 3.359375 2.722657 6.082031 6.082031 6.082031h9.117188c3.355469 0 6.078125-2.722656 6.078125-6.082031v-13.675781h13.679687c3.355469 0 6.078126-2.722656 6.078126-6.082032v-9.117187c0-3.359375-2.722657-6.082031-6.078126-6.082031zm0 0" fill="#ffea92"/><path d="m339.167969 341.800781c0 23.503907-19.050781 42.554688-42.554688 42.554688-23.5 0-42.554687-19.050781-42.554687-42.554688 0-23.5 19.054687-42.554687 42.554687-42.554687 23.503907 0 42.554688 19.054687 42.554688 42.554687zm0 0" fill="#a4c9ff"/><g fill="#f9a7a7"><path d="m308.773438 319.003906c0 6.714844-5.445313 12.15625-12.160157 12.15625-6.714843 0-12.15625-5.441406-12.15625-12.15625s5.441407-12.15625 12.15625-12.15625c6.714844 0 12.160157 5.441406 12.160157 12.15625zm0 0"/><path d="m308.773438 364.597656c0 6.714844-5.445313 12.160156-12.160157 12.160156-6.714843 0-12.15625-5.445312-12.15625-12.160156s5.441407-12.15625 12.15625-12.15625c6.714844 0 12.160157 5.441406 12.160157 12.15625zm0 0"/><path d="m331.566406 341.800781c0 6.714844-5.441406 12.160157-12.15625 12.160157s-12.15625-5.445313-12.15625-12.160157c0-6.714843 5.441406-12.15625 12.15625-12.15625s12.15625 5.441407 12.15625 12.15625zm0 0"/><path d="m285.972656 341.800781c0 6.714844-5.441406 12.160157-12.15625 12.160157s-12.160156-5.445313-12.160156-12.160157c0-6.714843 5.445312-12.15625 12.160156-12.15625s12.15625 5.441407 12.15625 12.15625zm0 0"/></g><path d="m334.574219 488.1875c-9.675781 0-18.796875-4.695312-24.414063-12.558594l-49.226562-68.9375h-97.835938l-49.230468 68.9375c-5.617188 7.863282-14.738282 12.558594-24.40625 12.558594-8.292969 0-16-3.300781-21.71875-9.296875-5.710938-5.996094-8.640626-13.855469-8.246094-22.128906l5.53125-115.054688c-.003906-34.546875 28.105468-63.476562 62.765625-64.550781.203125-.03125.417969-.046875.632812-.046875h167.175781c.21875 0 .433594.015625.640626.046875 34.625 1.078125 62.710937 29.953125 62.761718 64.644531l5.523438 114.960938c.398437 8.273437-2.53125 16.132812-8.246094 22.128906s-13.421875 9.296875-21.707031 9.296875zm-173.535157-89.496094h101.953126c1.292968 0 2.503906.625 3.253906 1.675782l50.425781 70.613281c4.117187 5.765625 10.804687 9.207031 17.894531 9.207031 6.082032 0 11.738282-2.421875 15.925782-6.816406 4.191406-4.398438 6.335937-10.160156 6.046874-16.226563l-5.527343-115.054687c-.003907-.0625-.003907-.125-.003907-.191406 0-30.609376-24.894531-56.070313-55.492187-56.761719-.152344 0-.296875-.011719-.445313-.03125h-166.117187c-.144531.019531-.289063.03125-.4375.03125-30.597656.691406-55.492187 26.152343-55.492187 56.761719l-5.535157 115.246093c-.292969 6.066407 1.855469 11.828125 6.046875 16.226563 4.1875 4.394531 9.84375 6.816406 15.914063 6.816406 7.097656 0 13.789062-3.445312 17.90625-9.207031l50.425781-70.613281c.753906-1.054688 1.964844-1.675782 3.257812-1.675782zm197.96875-56.796875h.019532zm0 0" fill="#3762cc"/><path d="m129.8125 406.691406c-35.722656 0-64.789062-29.066406-64.789062-64.792968 0-35.726563 29.066406-64.792969 64.789062-64.792969 35.726562 0 64.792969 29.066406 64.792969 64.792969 0 35.726562-29.0625 64.792968-64.792969 64.792968zm0-121.585937c-31.316406 0-56.789062 25.476562-56.789062 56.792969 0 31.316406 25.472656 56.792968 56.789062 56.792968s56.792969-25.476562 56.792969-56.792968c0-31.316407-25.476563-56.792969-56.792969-56.792969zm0 0" fill="#3762cc"/><path d="m294.214844 406.691406c-35.726563 0-64.792969-29.066406-64.792969-64.792968 0-35.726563 29.066406-64.792969 64.792969-64.792969 35.726562 0 64.792968 29.066406 64.792968 64.792969 0 35.726562-29.066406 64.792968-64.792968 64.792968zm0-121.585937c-31.316406 0-56.792969 25.476562-56.792969 56.792969 0 31.316406 25.476563 56.792968 56.792969 56.792968 31.3125 0 56.792968-25.476562 56.792968-56.792968 0-31.316407-25.480468-56.792969-56.792968-56.792969zm0 0" fill="#3762cc"/><path d="m213.597656 193.808594c-3.171875 1.152344-6.644531 1.152344-9.8125 0l-74.15625-26.984375v42.980469c0 2.761718 1.804688 5.222656 4.550782 6.140624 17.597656 5.894532 83.511718 24.609376 149.265624.050782 2.609376-.972656 4.300782-3.410156 4.300782-6.070313v-43.101562zm0 0" fill="#4671c6"/><path d="m211.972656 232.339844c-37.191406 0-67.363281-8.683594-79.066406-12.601563-4.351562-1.457031-7.277344-5.453125-7.277344-9.9375v-42.980469c0-1.300781.636719-2.527343 1.707032-3.277343 1.070312-.746094 2.4375-.921875 3.660156-.480469l74.15625 26.984375c2.28125.832031 4.792968.828125 7.074218 0l74.152344-26.984375c1.226563-.441406 2.59375-.265625 3.664063.480469 1.070312.75 1.703125 1.972656 1.703125 3.277343v43.105469c0 4.328125-2.773438 8.273438-6.898438 9.816407-25.160156 9.398437-50.3125 12.597656-72.875 12.597656zm-78.34375-59.804688v37.269532c0 1.054687.714844 1.976562 1.820313 2.347656 18.167969 6.085937 82.421875 24.066406 146.597656.101562 1.015625-.382812 1.703125-1.316406 1.703125-2.328125v-37.390625l-68.785156 25.03125c-4.046875 1.472656-8.503906 1.476563-12.550782 0zm0 0" fill="#3762cc"/><path d="m248.953125 240.976562h3.789063v23.835938h63.222656c3.40625 0 6.167968-2.675781 6.167968-5.972656v-61.234375h-23.128906v3.417969c0 6.03125-4.785156 11.21875-11.007812 11.503906-6.640625.300781-12.121094-4.820313-12.121094-11.1875v-3.734375h-23.128906v20.972656h-3.789063c-6.386719 0-11.566406 5.015625-11.566406 11.203125 0 6.183594 5.175781 11.195312 11.5625 11.195312zm0 0" fill="#6bdddd"/><path d="m315.964844 268.8125h-63.222656c-2.207032 0-4-1.792969-4-4v-19.835938c-8.484376-.109374-15.351563-6.886718-15.351563-15.199218 0-8.316406 6.871094-15.089844 15.351563-15.203125v-16.972657c0-2.207031 1.792968-4 4-4h23.132812c2.207031 0 4 1.792969 4 4v3.734376c0 1.917968.78125 3.722656 2.203125 5.082031 1.53125 1.457031 3.582031 2.199219 5.734375 2.109375 3.964844-.179688 7.191406-3.546875 7.191406-7.507813v-3.417969c0-2.207031 1.789063-4 4-4h23.125c2.210938 0 4 1.792969 4 4v61.234376c.003906 5.503906-4.558594 9.976562-10.164062 9.976562zm-59.222656-8h59.222656c1.195312 0 2.167968-.886719 2.167968-1.972656v-57.234375h-15.140624c-.296876 8.042969-6.695313 14.546875-14.8125 14.917969-4.320313.167968-8.550782-1.378907-11.628907-4.320313-2.953125-2.820313-4.605469-6.574219-4.675781-10.597656h-15.132812v16.96875c0 2.210937-1.792969 4-4 4h-3.789063c-4.171875 0-7.566406 3.230469-7.566406 7.203125s3.394531 7.203125 7.566406 7.203125h3.789063c2.207031 0 4 1.792969 4 4zm0 0" fill="#3762cc"/></svg>