<?xml version="1.0" encoding="iso-8859-1"?>
<!-- Generator: Adobe Illustrator 19.0.0, SVG Export Plug-In . SVG Version: 6.00 Build 0)  -->
<svg version="1.1" id="Capa_1" xmlns="http://www.w3.org/2000/svg" xmlns:xlink="http://www.w3.org/1999/xlink" x="0px" y="0px"
	 viewBox="0 0 511.998 511.998" style="enable-background:new 0 0 511.998 511.998;" xml:space="preserve">
<g>
	<g>
		<path d="M462.301,388.518v-49.68c0-22.406-18.229-40.634-40.635-40.634h-25.634v-75.336c0-0.137-0.013-0.27-0.021-0.405
			c10.051-7.404,16.588-19.315,16.588-32.729V57.2c0-4.142-3.357-7.5-7.5-7.5H296.633v-9.066C296.633,18.228,278.404,0,255.999,0
			c-22.405,0-40.634,18.228-40.634,40.634V49.7h-42.799c-4.143,0-7.5,3.358-7.5,7.5c0,4.142,3.357,7.5,7.5,7.5h225.033v125.033
			c0,14.135-11.499,25.634-25.634,25.634h-67.05v-33.915c0-4.142-3.357-7.5-7.5-7.5h-17.349v-42.984h9.063
			c4.143,0,7.5-3.358,7.5-7.5V98.617c0-4.142-3.357-7.5-7.5-7.5h-66.266c-4.143,0-7.5,3.358-7.5,7.5v24.851
			c0,4.142,3.357,7.5,7.5,7.5h9.068v42.984h-17.352c-4.143,0-7.5,3.358-7.5,7.5v33.915h-67.05
			c-14.135,0-25.634-11.499-25.634-25.634V64.7h28.199c4.143,0,7.5-3.358,7.5-7.5c0-4.142-3.357-7.5-7.5-7.5h-35.699
			c-4.143,0-7.5,3.358-7.5,7.5v132.533c0,13.413,6.537,25.325,16.588,32.729c-0.007,0.135-0.021,0.268-0.021,0.405v75.336H90.331
			c-22.405,0-40.634,18.229-40.634,40.634v49.68c0,0.007-0.001,0.013-0.001,0.019c0,0.007,0.001,0.013,0.001,0.019v66.244
			c0,4.142,3.357,7.5,7.5,7.5h58.769v9.065c0,22.406,18.229,40.634,40.634,40.634h198.799c22.405,0,40.634-18.228,40.634-40.634
			v-9.065h58.769c4.142,0,7.5-3.358,7.5-7.5v-66.244c-0.001-0.005,0-0.011,0-0.018S462.301,388.524,462.301,388.518z M281.633,49.7
			h-51.268v-9.066C230.365,26.5,241.864,15,255.999,15c14.135,0,25.634,11.5,25.634,25.634V49.7z M115.966,447.301H64.697v-9.848
			h51.269V447.301z M115.966,422.453H64.697v-26.416h17.351c4.143,0,7.5-3.358,7.5-7.5v-25.636h26.418V422.453z M115.966,347.901
			H82.048c-4.143,0-7.5,3.358-7.5,7.5v25.636h-9.851v-42.199c0-14.135,11.499-25.634,25.634-25.634h25.635V347.901z
			 M230.365,115.968v-9.851h51.266v9.851H230.365z M265.067,130.968L265.067,130.968v42.984h-18.134v-42.984H265.067z
			 M222.082,188.952h67.834v67.835h-67.834V188.952z M265.067,271.787v18.574l-9.068,6.237l-9.065-6.236v-18.575H265.067z
			 M381.032,471.366c0,14.135-11.499,25.634-25.634,25.634H156.6c-14.135,0-25.634-11.499-25.634-25.634v-9.065h250.066V471.366z
			 M381.032,305.684c0,0.007-0.001,0.013-0.001,0.019c0,0.007,0.001,0.013,0.001,0.019V447.3H130.966V305.723
			c0-0.007,0.001-0.013,0.001-0.019c0-0.007-0.001-0.013-0.001-0.019v-76.349c2.917,0.667,5.949,1.031,9.066,1.031h67.05v33.92
			c0,4.142,3.357,7.5,7.5,7.5h17.352v22.519c0,2.469,1.215,4.78,3.249,6.179l16.565,11.395c1.28,0.88,2.766,1.321,4.251,1.321
			c1.485,0,2.97-0.44,4.25-1.32l16.568-11.395c2.034-1.399,3.25-3.71,3.25-6.18v-22.519h17.349c4.143,0,7.5-3.358,7.5-7.5v-33.92
			h67.05c3.117,0,6.149-0.365,9.066-1.032V305.684z M447.301,447.301h-51.269v-9.848h51.269V447.301z M447.301,422.453h-51.269
			v-59.552h26.418v25.636c0,4.142,3.357,7.5,7.5,7.5h17.351V422.453z M447.301,381.037h-9.851v-25.636c0-4.142-3.357-7.5-7.5-7.5
			h-33.918v-34.697h25.634v0c14.135,0,25.635,11.5,25.635,25.634V381.037z"/>
	</g>
</g>
<g>
	<g>
		<path d="M355.399,314.768H156.598c-4.143,0-7.5,3.358-7.5,7.5v107.685c0,4.142,3.357,7.5,7.5,7.5h198.801
			c4.143,0,7.5-3.358,7.5-7.5V322.268C362.899,318.126,359.542,314.768,355.399,314.768z M347.899,422.453H164.098v-59.549h18.133
			v9.066c0,4.142,3.358,7.5,7.5,7.5c4.143,0,7.5-3.358,7.5-7.5v-9.066h150.668V422.453z M347.899,347.904H164.098v-18.136h183.801
			V347.904z"/>
	</g>
</g>
<g>
	<g>
		<path d="M272.565,198.802h-33.134c-4.143,0-7.5,3.358-7.5,7.5v33.134c0,4.142,3.357,7.5,7.5,7.5h33.134c4.143,0,7.5-3.358,7.5-7.5
			v-33.134C280.065,202.16,276.708,198.802,272.565,198.802z M265.065,231.936h-18.134v-18.134h18.134V231.936z"/>
	</g>
</g>
<g>
</g>
<g>
</g>
<g>
</g>
<g>
</g>
<g>
</g>
<g>
</g>
<g>
</g>
<g>
</g>
<g>
</g>
<g>
</g>
<g>
</g>
<g>
</g>
<g>
</g>
<g>
</g>
<g>
</g>
</svg>
