<?xml version="1.0" encoding="iso-8859-1"?>
<!-- Generator: Adobe Illustrator 19.0.0, SVG Export Plug-In . SVG Version: 6.00 Build 0)  -->
<svg version="1.1" id="Capa_1" xmlns="http://www.w3.org/2000/svg" xmlns:xlink="http://www.w3.org/1999/xlink" x="0px" y="0px"
	 viewBox="0 0 512 512" style="enable-background:new 0 0 512 512;" xml:space="preserve">
<g>
	<g>
		<path d="M280.068,100.811v-9.302c15.242-8.615,24.85-24.83,24.85-42.591C304.919,21.944,282.974,0,256.002,0
			c-26.973,0-48.917,21.944-48.917,48.917c0,17.761,9.608,33.976,24.849,42.591v9.303C129.479,112.77,49.699,200.086,49.699,305.7
			C49.699,419.454,142.247,512,256,512s206.3-92.546,206.3-206.3C462.302,200.086,382.523,112.77,280.068,100.811z M231.933,57.198
			v15.605c-6.187-6.241-9.849-14.766-9.849-23.887c0-18.701,15.215-33.916,33.917-33.916c18.702,0,33.917,15.215,33.917,33.917
			c0,9.12-3.662,17.646-9.85,23.887V57.198c0-4.142-3.357-7.5-7.5-7.5h-33.135C235.292,49.698,231.933,53.056,231.933,57.198z
			 M246.933,74.548v-9.85h18.135v9.85H246.933z M265.068,89.548v10.061c-3.008-0.131-6.029-0.211-9.068-0.211
			s-6.059,0.08-9.067,0.21v-10.06H265.068z M256,497C150.518,497,64.7,411.183,64.7,305.7S150.518,114.399,256,114.399
			S447.3,200.216,447.3,305.7S361.484,497,256,497z"/>
	</g>
</g>
<g>
	<g>
		<path d="M256,140.817c-40.961,0-80.234,15.122-110.583,42.58c-3.072,2.779-3.309,7.521-0.53,10.593
			c2.779,3.071,7.522,3.31,10.593,0.53c27.586-24.958,63.285-38.703,100.52-38.703c82.645,0,149.882,67.237,149.882,149.883
			S338.646,455.582,256,455.582c-82.646,0-149.883-67.237-149.883-149.883c0-33.102,10.573-64.479,30.577-90.738
			c2.51-3.295,1.874-8.001-1.421-10.511c-3.295-2.51-8-1.874-10.511,1.421c-22.01,28.893-33.644,63.414-33.644,99.828
			c0,90.917,73.966,164.883,164.883,164.883s164.882-73.966,164.882-164.883S346.917,140.817,256,140.817z"/>
	</g>
</g>
<g>
	<g>
		<path d="M272.57,165.667c-4.143,0-7.5,3.358-7.5,7.5v15.027l-20.33-20.33c-2.145-2.145-5.371-2.786-8.173-1.626
			c-2.803,1.161-4.63,3.895-4.63,6.929V206.3c0,4.142,3.358,7.5,7.5,7.5c4.141,0,7.499-3.358,7.499-7.5v-15.027l20.33,20.33
			c1.435,1.435,3.353,2.197,5.306,2.197c0.966,0,1.94-0.187,2.868-0.571c2.803-1.161,4.63-3.896,4.63-6.929v-33.133
			C280.07,169.025,276.713,165.667,272.57,165.667z"/>
	</g>
</g>
<g>
	<g>
		<path d="M388.534,298.2h-9.312c-1.362-22.777-8.897-44.517-22.041-63.274c-14.247-20.333-33.987-35.749-57.087-44.585
			c-3.866-1.479-8.204,0.458-9.684,4.326c-1.479,3.869,0.457,8.205,4.326,9.685c41.708,15.952,69.731,56.68,69.731,101.348
			c0,59.809-48.658,108.467-108.467,108.467S147.534,365.509,147.534,305.7c0-45.121,27.172-84.826,69.223-101.152
			c3.861-1.5,5.776-5.845,4.277-9.706c-1.499-3.862-5.843-5.778-9.706-4.278c-22.951,8.911-42.552,24.337-56.684,44.612
			c-13.034,18.699-20.509,40.352-21.866,63.024h-9.31c-4.142,0-7.5,3.358-7.5,7.5c0,4.142,3.358,7.5,7.5,7.5h9.299
			c3.741,62.118,53.615,111.992,115.733,115.733v9.299c0,4.142,3.358,7.5,7.5,7.5s7.501-3.358,7.501-7.5v-9.299
			c62.118-3.741,111.991-53.615,115.732-115.733h9.301c4.143,0,7.5-3.358,7.5-7.5C396.034,301.558,392.677,298.2,388.534,298.2z"/>
	</g>
</g>
<g>
	<g>
		<path d="M319.875,241.826c-2.108-2.109-5.266-2.769-8.046-1.677l-68.822,27.044c-5.861,1.972-11.236,5.276-15.736,9.777
			c-3.565,3.563-6.32,7.632-8.28,11.976c-0.052,0.115-0.11,0.227-0.156,0.346l-0.062,0.157c-0.42,0.964-0.809,1.939-1.15,2.927
			l-27.171,69.155c-1.091,2.777-0.433,5.936,1.677,8.046c1.434,1.434,3.351,2.197,5.305,2.197c0.921,0,1.852-0.17,2.742-0.52
			l68.895-27.072c5.832-1.975,11.18-5.27,15.662-9.752c3.605-3.605,6.38-7.728,8.345-12.128c0.028-0.066,0.066-0.124,0.093-0.191
			l0.094-0.241c0.4-0.924,0.773-1.856,1.1-2.801l27.188-69.197C322.644,247.095,321.986,243.936,319.875,241.826z M210.706,350.999
			l9.939-25.295c1.766,3.124,3.968,6.067,6.626,8.725c2.631,2.631,5.565,4.846,8.715,6.636L210.706,350.999z M280.266,313.937
			l-0.904,2.3c-1.237,2.751-2.979,5.329-5.236,7.585c-2.166,2.166-4.654,3.893-7.352,5.145l-2.752,1.081
			c-2.555,0.839-5.252,1.281-8.019,1.281c-6.846,0-13.283-2.666-18.124-7.507c-7.105-7.105-9.153-17.375-6.156-26.311l0.958-2.443
			c1.235-2.717,2.965-5.262,5.196-7.494c2.142-2.142,4.596-3.856,7.26-5.103l2.92-1.147c2.533-0.823,5.205-1.257,7.945-1.257
			c6.846,0,13.283,2.666,18.124,7.507C281.245,294.692,283.288,304.989,280.266,313.937z M291.36,285.697
			c-1.766-3.125-3.969-6.069-6.628-8.729c-2.63-2.63-5.563-4.844-8.711-6.633l25.278-9.933L291.36,285.697z"/>
	</g>
</g>
<g>
</g>
<g>
</g>
<g>
</g>
<g>
</g>
<g>
</g>
<g>
</g>
<g>
</g>
<g>
</g>
<g>
</g>
<g>
</g>
<g>
</g>
<g>
</g>
<g>
</g>
<g>
</g>
<g>
</g>
</svg>
