<?xml version="1.0" encoding="iso-8859-1"?>
<!-- Generator: Adobe Illustrator 19.0.0, SVG Export Plug-In . SVG Version: 6.00 Build 0)  -->
<svg version="1.1" id="Capa_1" xmlns="http://www.w3.org/2000/svg" xmlns:xlink="http://www.w3.org/1999/xlink" x="0px" y="0px"
	 viewBox="0 0 512.001 512.001" style="enable-background:new 0 0 512.001 512.001;" xml:space="preserve">
<g>
	<g>
		<g>
			<path d="M455.498,405.097c0-40.673-33.09-73.763-73.763-73.763h-41.117l-27.134-13.686v-41.484
				c18.397-15.091,30.748-37.29,32.818-62.361h9.381c13.27,0,24.066-10.796,24.066-24.067v-33.134
				c0-13.27-10.796-24.066-24.066-24.066h-9.067v-9.852h41.918c3.301,0,6.214-2.159,7.175-5.317
				c0.961-3.158-0.256-6.574-2.999-8.412L346.616,78.05l-0.001-37.417C346.615,18.228,328.387,0,305.981,0h-99.398
				c-22.405,0-40.633,18.228-40.633,40.633l-0.001,37.392l-46.625,30.908c-2.758,1.828-3.992,5.248-3.037,8.416
				c0.955,3.168,3.873,5.336,7.181,5.336h42.483v9.851h-9.068c-13.27,0-24.067,10.796-24.067,24.067v33.134
				c0,13.27,10.796,24.066,24.067,24.066h9.382c2.07,25.072,14.421,47.272,32.82,62.364v41.447l-27.676,13.722l-41.145,0.002
				c-40.673,0-73.763,33.09-73.763,73.763v99.4c0,4.142,3.358,7.5,7.5,7.5h46.266c4.142,0,7.5-3.358,7.5-7.5
				c0-4.142-3.358-7.5-7.5-7.5H71.501v-91.9c0-32.402,26.361-58.763,58.763-58.763l33.753-0.001l-14.77,73.86
				c-0.561,2.809,0.526,5.692,2.802,7.431c1.333,1.018,2.938,1.539,4.553,1.539c1.143,0,2.292-0.261,3.353-0.792l39.129-19.564V497
				h-58.768c-4.142,0-7.5,3.358-7.5,7.5c0,4.142,3.358,7.5,7.5,7.5H448c1.989,0,3.897-0.79,5.303-2.197
				c1.407-1.407,2.197-3.314,2.197-5.303L455.498,405.097z M165.951,198.802h-9.068c-5,0-9.067-4.068-9.067-9.067v-33.134
				c0-4.999,4.067-9.067,9.067-9.067h9.068V198.802z M199.083,392.04l-32.122,16.06l12.836-64.182l19.147-9.494
				c0.041,0.609,0.079,1.22,0.139,1.824V392.04z M332.195,343.887l12.821,64.104L313.483,392v-57.552L332.195,343.887z
				 M331.615,132.536H180.951v-9.852h150.664V132.536z M276.208,147.536h34.699v9.066c0,4.999-4.067,9.067-9.067,9.067h-16.565
				c-5,0-9.067-4.067-9.067-9.067V147.536z M236.358,147.536v9.066c0,4.999-4.067,9.067-9.066,9.067h-16.566
				c-5,0-9.067-4.067-9.067-9.067v-9.066H236.358z M355.683,147.535c4.999,0.001,9.066,4.068,9.066,9.067v33.134
				c0,4.999-4.067,9.067-9.066,9.067h-9.067v-51.268H355.683z M180.95,40.633C180.95,26.499,192.449,15,206.583,15h99.398
				c14.134,0,25.634,11.499,25.634,25.633v0.783H180.95V40.633z M180.95,56.416h150.666l0.001,18.135H180.949L180.95,56.416z
				 M148.355,107.683l27.354-18.132h161.126l27.044,18.132H148.355z M298.483,497h-84.399v-86.398
				c12.845,6.758,27.103,10.28,41.916,10.28c15.039,0,29.493-3.632,42.483-10.587V497z M298.483,392.76
				c-12.533,8.591-27.141,13.121-42.483,13.121c-15.105,0-29.508-4.4-41.916-12.742v-23.723
				c10.454,11.265,25.371,18.332,41.915,18.332c16.844,0,32.007-7.322,42.484-18.946V392.76z M298.483,328.526
				c-0.18,0.644-0.284,1.32-0.284,2.022c0,23.269-18.931,42.2-42.2,42.2c-21.634,0-39.508-16.367-41.915-37.367v-49.23
				c12.603,6.688,26.965,10.484,42.199,10.484s29.596-3.796,42.2-10.484V328.526z M256.283,281.636
				c-41.538-0.001-75.332-33.795-75.332-75.333v-58.767h5.708v9.066c0,13.27,10.796,24.067,24.067,24.067h16.566
				c13.27,0,24.066-10.796,24.066-24.067v-9.066h9.85v9.066c0,13.27,10.796,24.067,24.067,24.067h16.565
				c13.271,0,24.067-10.796,24.067-24.067v-9.066h5.708v58.767C331.615,247.842,297.821,281.636,256.283,281.636z M313.483,497
				v-88.182l38.525,19.537c1.072,0.543,2.234,0.811,3.391,0.811c1.608,0,3.206-0.517,4.537-1.527
				c2.288-1.737,3.382-4.628,2.819-7.444l-14.773-73.861h33.753c32.402,0,58.763,26.361,58.763,58.763L440.5,497H313.483z"/>
			<path d="M272.567,215.368h-33.133c-4.142,0-7.5,3.358-7.5,7.5c0,4.142,3.358,7.5,7.5,7.5h33.133c4.142,0,7.5-3.358,7.5-7.5
				C280.067,218.726,276.709,215.368,272.567,215.368z"/>
			<path d="M405.1,447.301h-66.267c-4.142,0-7.5,3.358-7.5,7.5v16.567c0,4.142,3.358,7.5,7.5,7.5c4.142,0,7.5-3.358,7.5-7.5v-9.067
				H397.6v9.067c0,4.142,3.358,7.5,7.5,7.5c4.142,0,7.5-3.358,7.5-7.5v-16.567C412.6,450.659,409.242,447.301,405.1,447.301z"/>
		</g>
	</g>
</g>
<g>
</g>
<g>
</g>
<g>
</g>
<g>
</g>
<g>
</g>
<g>
</g>
<g>
</g>
<g>
</g>
<g>
</g>
<g>
</g>
<g>
</g>
<g>
</g>
<g>
</g>
<g>
</g>
<g>
</g>
</svg>
