<?xml version="1.0" encoding="iso-8859-1"?>
<!-- Generator: Adobe Illustrator 19.0.0, SVG Export Plug-In . SVG Version: 6.00 Build 0)  -->
<svg version="1.1" id="Capa_1" xmlns="http://www.w3.org/2000/svg" xmlns:xlink="http://www.w3.org/1999/xlink" x="0px" y="0px"
	 viewBox="0 0 512.001 512.001" style="enable-background:new 0 0 512.001 512.001;" xml:space="preserve">
<g>
	<g>
		<path d="M256.002,82.835c-95.483,0-173.165,77.682-173.165,173.165s77.682,173.165,173.165,173.165S429.167,351.483,429.167,256
			S351.485,82.835,256.002,82.835z M256.002,414.165c-87.213,0-158.165-70.952-158.165-158.165S168.789,97.835,256.002,97.835
			s158.165,70.952,158.165,158.165S343.215,414.165,256.002,414.165z"/>
	</g>
</g>
<g>
	<g>
		<path d="M64.701,140.014V90.334c0-4.143-3.357-7.5-7.5-7.5s-7.5,3.357-7.5,7.5v42.2h-9.85v-42.2c0-4.143-3.357-7.5-7.5-7.5
			s-7.5,3.357-7.5,7.5v42.2h-9.849v-42.2c0-4.143-3.357-7.5-7.5-7.5s-7.5,3.357-7.5,7.5v49.662c0,0.013-0.002,0.025-0.002,0.039
			c0,0.014,0.002,0.026,0.002,0.039v8.245c0,15.256,10.618,28.07,24.849,31.462v68.718h-9.067c-4.143,0-7.5,3.357-7.5,7.5v165.669
			c0,4.143,3.357,7.5,7.5,7.5h33.135c4.143,0,7.5-3.357,7.5-7.5V255.999c0-4.143-3.357-7.5-7.5-7.5h-9.067V179.78
			c14.232-3.393,24.85-16.207,24.85-31.462v-8.264c0,0,0.001-0.013,0.001-0.019C64.702,140.035,64.701,140.022,64.701,140.014z
			 M41.419,414.166H23.284V296.631h18.135V414.166z M41.419,263.499v18.133H23.284v-18.133h9.048c0.006,0,0.013,0.001,0.019,0.001
			c0.006,0,0.013-0.001,0.019-0.001H41.419z M49.701,148.318c0,9.566-7.783,17.35-17.35,17.35c-9.567,0-17.349-7.783-17.349-17.35
			v-0.783h34.699V148.318z"/>
	</g>
</g>
<g>
	<g>
		<path d="M479.651,82.834c-17.837,0-32.349,14.512-32.349,32.349l-0.001,41.418c0,13.27,10.796,24.066,24.066,24.066h0.784v67.831
			h-9.067c-4.142,0-7.5,3.357-7.5,7.5v165.669c0,4.143,3.358,7.5,7.5,7.5h33.135c4.143,0,7.5-3.357,7.5-7.5V255.998
			c0-4.143-3.357-7.5-7.5-7.5h-9.067v-67.831h0.782c13.27,0,24.067-10.796,24.067-24.066v-41.418
			C512.001,97.345,497.489,82.834,479.651,82.834z M488.719,414.167h-18.135V296.631h18.135V414.167z M488.718,263.498v18.133
			h-18.134v-18.133h9.048c0.007,0,0.013,0.001,0.019,0.001c0.007,0,0.013-0.001,0.019-0.001H488.718z M497.003,156.6h-0.002
			c0,4.999-4.067,9.066-9.067,9.066h-8.243c-0.013,0-0.026-0.002-0.039-0.002s-0.026,0.002-0.039,0.002h-8.245
			c-4.999,0-9.066-4.067-9.066-9.066l0.002-41.418c0-9.566,7.782-17.349,17.349-17.349c9.566,0,17.35,7.782,17.35,17.349V156.6z"/>
	</g>
</g>
<g>
	<g>
		<path d="M256.002,149.1c-19.031,0-37.72,5.066-54.047,14.65c-3.572,2.097-4.768,6.692-2.671,10.265
			c2.097,3.571,6.693,4.769,10.265,2.671c14.026-8.233,30.09-12.586,46.453-12.586c50.674,0,91.899,41.226,91.899,91.899
			c0,50.673-41.226,91.899-91.899,91.899S164.103,306.673,164.103,256c0-22.608,8.284-44.337,23.326-61.184
			c2.759-3.09,2.49-7.831-0.6-10.59c-3.092-2.76-7.832-2.489-10.59,0.6c-17.499,19.6-27.137,44.876-27.137,71.174
			c0,58.944,47.955,106.899,106.899,106.899s106.9-47.954,106.9-106.899S314.946,149.1,256.002,149.1z"/>
	</g>
</g>
<g>
	<g>
		<path d="M272.569,107.683c-4.143,0-7.5,3.357-7.5,7.5c0,4.999-4.067,9.066-9.066,9.066c-5,0-9.067-4.067-9.067-9.066
			c0-4.143-3.357-7.5-7.5-7.5s-7.5,3.357-7.5,7.5c0,13.271,10.796,24.066,24.067,24.066s24.066-10.796,24.066-24.066
			C280.069,111.04,276.712,107.683,272.569,107.683z"/>
	</g>
</g>
<g>
	<g>
		<path d="M115.185,231.933c-4.143,0-7.5,3.357-7.5,7.5s3.357,7.5,7.5,7.5c4.999,0,9.066,4.067,9.066,9.066
			c0,5-4.067,9.067-9.066,9.067c-4.143,0-7.5,3.357-7.5,7.5s3.357,7.5,7.5,7.5c13.27,0,24.066-10.797,24.066-24.067
			S128.455,231.933,115.185,231.933z"/>
	</g>
</g>
<g>
	<g>
		<path d="M256.001,372.751c-13.27,0-24.066,10.796-24.066,24.066c0,4.143,3.357,7.5,7.5,7.5s7.5-3.357,7.5-7.5
			c0-4.999,4.067-9.066,9.066-9.066c5,0,9.067,4.067,9.067,9.066c0,4.143,3.357,7.5,7.5,7.5s7.5-3.357,7.5-7.5
			C280.068,383.546,269.271,372.751,256.001,372.751z"/>
	</g>
</g>
<g>
	<g>
		<path d="M396.819,265.067c-4.999,0-9.066-4.067-9.066-9.066c0-5,4.067-9.067,9.066-9.067c4.143,0,7.5-3.357,7.5-7.5
			s-3.357-7.5-7.5-7.5c-13.271,0-24.066,10.797-24.066,24.067s10.796,24.066,24.066,24.066c4.143,0,7.5-3.357,7.5-7.5
			S400.962,265.067,396.819,265.067z"/>
	</g>
</g>
<g>
</g>
<g>
</g>
<g>
</g>
<g>
</g>
<g>
</g>
<g>
</g>
<g>
</g>
<g>
</g>
<g>
</g>
<g>
</g>
<g>
</g>
<g>
</g>
<g>
</g>
<g>
</g>
<g>
</g>
</svg>
